<svg width="99" height="35" viewBox="0 0 99 35" fill="none" xmlns="http://www.w3.org/2000/svg">
<g filter="url(#filter0_d)">
<rect x="4" width="91" height="27" rx="13.5" fill="#1D0609"/>
</g>
<rect x="33" width="62" height="27" rx="13.5" fill="#360A0F"/>
<path d="M45.5 9.6C46.252 9.6 46.896 9.788 47.432 10.164C47.976 10.532 48.388 11.036 48.668 11.676C48.956 12.308 49.1 13.016 49.1 13.8C49.1 14.584 48.956 15.296 48.668 15.936C48.388 16.568 47.976 17.072 47.432 17.448C46.896 17.816 46.252 18 45.5 18H42.632C42.424 18 42.248 17.932 42.104 17.796C41.968 17.652 41.9 17.476 41.9 17.268V10.332C41.9 10.124 41.968 9.952 42.104 9.816C42.248 9.672 42.424 9.6 42.632 9.6H45.5ZM45.38 16.62C46.1 16.62 46.64 16.356 47 15.828C47.36 15.292 47.54 14.616 47.54 13.8C47.54 12.984 47.356 12.312 46.988 11.784C46.628 11.248 46.092 10.98 45.38 10.98H43.4V16.62H45.38ZM51.7141 17.268C51.7141 17.476 51.6461 17.652 51.5101 17.796C51.3741 17.932 51.2021 18 50.9941 18C50.7861 18 50.6141 17.932 50.4781 17.796C50.3421 17.652 50.2741 17.476 50.2741 17.268V12.312C50.2741 12.104 50.3421 11.932 50.4781 11.796C50.6141 11.652 50.7861 11.58 50.9941 11.58C51.2021 11.58 51.3741 11.652 51.5101 11.796C51.6461 11.932 51.7141 12.104 51.7141 12.312V17.268ZM50.9821 10.8C50.7101 10.8 50.5181 10.756 50.4061 10.668C50.2941 10.58 50.2381 10.424 50.2381 10.2V9.972C50.2381 9.748 50.2981 9.592 50.4181 9.504C50.5381 9.416 50.7301 9.372 50.9941 9.372C51.2741 9.372 51.4701 9.416 51.5821 9.504C51.6941 9.592 51.7501 9.748 51.7501 9.972V10.2C51.7501 10.432 51.6901 10.592 51.5701 10.68C51.4581 10.76 51.2621 10.8 50.9821 10.8ZM52.8221 17.004C52.7501 16.908 52.7141 16.788 52.7141 16.644C52.7141 16.436 52.8181 16.26 53.0261 16.116C53.1381 16.044 53.2541 16.008 53.3741 16.008C53.5421 16.008 53.7021 16.084 53.8541 16.236C54.0941 16.484 54.3421 16.668 54.5981 16.788C54.8621 16.908 55.1781 16.968 55.5461 16.968C56.1701 16.944 56.4821 16.708 56.4821 16.26C56.4821 16.028 56.3741 15.852 56.1581 15.732C55.9501 15.612 55.6221 15.492 55.1741 15.372C54.7101 15.244 54.3301 15.116 54.0341 14.988C53.7461 14.86 53.4941 14.668 53.2781 14.412C53.0701 14.148 52.9661 13.796 52.9661 13.356C52.9661 12.972 53.0741 12.64 53.2901 12.36C53.5141 12.072 53.8021 11.852 54.1541 11.7C54.5141 11.54 54.8941 11.46 55.2941 11.46C55.7021 11.46 56.1101 11.536 56.5181 11.688C56.9261 11.84 57.2461 12.064 57.4781 12.36C57.5821 12.488 57.6341 12.632 57.6341 12.792C57.6341 12.976 57.5581 13.128 57.4061 13.248C57.2941 13.336 57.1661 13.38 57.0221 13.38C56.8461 13.38 56.7021 13.324 56.5901 13.212C56.4461 13.036 56.2581 12.896 56.0261 12.792C55.8021 12.688 55.5461 12.636 55.2581 12.636C54.6501 12.636 54.3461 12.856 54.3461 13.296C54.3461 13.472 54.4021 13.616 54.5141 13.728C54.6261 13.832 54.7661 13.916 54.9341 13.98C55.1101 14.036 55.3541 14.108 55.6661 14.196C56.0981 14.316 56.4581 14.44 56.7461 14.568C57.0341 14.696 57.2781 14.892 57.4781 15.156C57.6781 15.42 57.7781 15.768 57.7781 16.2C57.7781 16.592 57.6621 16.936 57.4301 17.232C57.1981 17.52 56.8981 17.74 56.5301 17.892C56.1701 18.044 55.7981 18.12 55.4141 18.12C54.8861 18.12 54.3941 18.032 53.9381 17.856C53.4821 17.68 53.1101 17.396 52.8221 17.004ZM61.7791 11.46C62.4591 11.46 63.0071 11.568 63.4231 11.784C63.8391 11.992 64.0471 12.272 64.0471 12.624C64.0471 12.8 63.9951 12.956 63.8911 13.092C63.7871 13.22 63.6511 13.284 63.4831 13.284C63.3551 13.284 63.2511 13.268 63.1711 13.236C63.0911 13.196 63.0111 13.148 62.9311 13.092C62.8591 13.028 62.7871 12.976 62.7151 12.936C62.6351 12.896 62.5151 12.86 62.3551 12.828C62.2031 12.796 62.0791 12.78 61.9831 12.78C61.3831 12.78 60.9111 12.968 60.5671 13.344C60.2311 13.712 60.0631 14.196 60.0631 14.796C60.0631 15.372 60.2351 15.852 60.5791 16.236C60.9231 16.612 61.3631 16.8 61.8991 16.8C62.2911 16.8 62.5831 16.752 62.7751 16.656C62.8231 16.632 62.8871 16.592 62.9671 16.536C63.0551 16.472 63.1351 16.424 63.2071 16.392C63.2791 16.36 63.3671 16.344 63.4711 16.344C63.6711 16.344 63.8271 16.408 63.9391 16.536C64.0591 16.664 64.1191 16.828 64.1191 17.028C64.1191 17.22 64.0071 17.4 63.7831 17.568C63.5591 17.736 63.2631 17.872 62.8951 17.976C62.5271 18.072 62.1351 18.12 61.7191 18.12C61.1031 18.12 60.5591 17.976 60.0871 17.688C59.6231 17.4 59.2631 17.004 59.0071 16.5C58.7511 15.988 58.6231 15.42 58.6231 14.796C58.6231 14.148 58.7551 13.572 59.0191 13.068C59.2911 12.564 59.6671 12.172 60.1471 11.892C60.6271 11.604 61.1711 11.46 61.7791 11.46ZM71.3269 14.796C71.3269 15.436 71.1829 16.012 70.8949 16.524C70.6069 17.028 70.2109 17.42 69.7069 17.7C69.2109 17.98 68.6629 18.12 68.0629 18.12C67.4549 18.12 66.9029 17.98 66.4069 17.7C65.9109 17.42 65.5189 17.028 65.2309 16.524C64.9429 16.012 64.7989 15.436 64.7989 14.796C64.7989 14.156 64.9429 13.584 65.2309 13.08C65.5189 12.568 65.9109 12.172 66.4069 11.892C66.9029 11.604 67.4549 11.46 68.0629 11.46C68.6629 11.46 69.2109 11.604 69.7069 11.892C70.2109 12.172 70.6069 12.568 70.8949 13.08C71.1829 13.584 71.3269 14.156 71.3269 14.796ZM69.8869 14.796C69.8869 14.404 69.8029 14.056 69.6349 13.752C69.4749 13.44 69.2549 13.2 68.9749 13.032C68.7029 12.864 68.3989 12.78 68.0629 12.78C67.7269 12.78 67.4189 12.864 67.1389 13.032C66.8669 13.2 66.6469 13.44 66.4789 13.752C66.3189 14.056 66.2389 14.404 66.2389 14.796C66.2389 15.188 66.3189 15.536 66.4789 15.84C66.6469 16.144 66.8669 16.38 67.1389 16.548C67.4189 16.716 67.7269 16.8 68.0629 16.8C68.3989 16.8 68.7029 16.716 68.9749 16.548C69.2549 16.38 69.4749 16.144 69.6349 15.84C69.8029 15.536 69.8869 15.188 69.8869 14.796ZM75.866 11.46C76.106 11.46 76.306 11.528 76.466 11.664C76.634 11.8 76.718 11.96 76.718 12.144C76.718 12.392 76.654 12.58 76.526 12.708C76.398 12.828 76.246 12.888 76.07 12.888C75.95 12.888 75.814 12.86 75.662 12.804C75.638 12.796 75.582 12.78 75.494 12.756C75.414 12.732 75.326 12.72 75.23 12.72C75.022 12.72 74.822 12.784 74.63 12.912C74.438 13.04 74.278 13.236 74.15 13.5C74.03 13.756 73.97 14.064 73.97 14.424V17.268C73.97 17.476 73.902 17.652 73.766 17.796C73.63 17.932 73.458 18 73.25 18C73.042 18 72.87 17.932 72.734 17.796C72.598 17.652 72.53 17.476 72.53 17.268V12.312C72.53 12.104 72.598 11.932 72.734 11.796C72.87 11.652 73.042 11.58 73.25 11.58C73.458 11.58 73.63 11.652 73.766 11.796C73.902 11.932 73.97 12.104 73.97 12.312V12.468C74.154 12.14 74.418 11.892 74.762 11.724C75.106 11.548 75.474 11.46 75.866 11.46ZM82.6596 9.12C82.8676 9.12 83.0396 9.188 83.1756 9.324C83.3116 9.46 83.3796 9.636 83.3796 9.852V17.268C83.3796 17.476 83.3116 17.652 83.1756 17.796C83.0396 17.932 82.8676 18 82.6596 18C82.4516 18 82.2796 17.932 82.1436 17.796C82.0156 17.66 81.9476 17.488 81.9396 17.28C81.7396 17.512 81.4676 17.712 81.1236 17.88C80.7876 18.04 80.4316 18.12 80.0556 18.12C79.5036 18.12 79.0036 17.98 78.5556 17.7C78.1076 17.412 77.7516 17.016 77.4876 16.512C77.2316 16.008 77.1036 15.436 77.1036 14.796C77.1036 14.156 77.2316 13.584 77.4876 13.08C77.7436 12.568 78.0916 12.172 78.5316 11.892C78.9796 11.604 79.4716 11.46 80.0076 11.46C80.3916 11.46 80.7516 11.532 81.0876 11.676C81.4236 11.812 81.7076 11.988 81.9396 12.204V9.852C81.9396 9.644 82.0076 9.472 82.1436 9.336C82.2796 9.192 82.4516 9.12 82.6596 9.12ZM80.2356 16.8C80.7556 16.8 81.1796 16.612 81.5076 16.236C81.8356 15.852 81.9996 15.372 81.9996 14.796C81.9996 14.22 81.8356 13.74 81.5076 13.356C81.1796 12.972 80.7556 12.78 80.2356 12.78C79.7236 12.78 79.3036 12.972 78.9756 13.356C78.6476 13.74 78.4836 14.22 78.4836 14.796C78.4836 15.372 78.6436 15.852 78.9636 16.236C79.2916 16.612 79.7156 16.8 80.2356 16.8Z" fill="#D69006"/>
<path d="M28.625 24L26.583 22.2L25.432 21.13L24.215 20L24.715 21.759H13.947C12.8686 21.7551 11.9972 20.8784 12 19.8V6.957C11.9983 5.87939 12.8694 5.00386 13.947 5H26.678C27.7556 5.00386 28.6267 5.87939 28.625 6.957V24ZM24.1 15.508C23.6784 16.0735 23.0713 16.4728 22.385 16.636C22.667 16.996 23.007 17.403 23.01 17.407C24.1571 17.4312 25.2433 16.8917 25.917 15.963C25.8825 14.0377 25.4149 12.1449 24.549 10.425C23.7866 9.82677 22.8586 9.47763 21.891 9.425H21.88L21.747 9.577C22.6113 9.80915 23.4173 10.22 24.113 10.783C23.2278 10.2964 22.2565 9.98665 21.253 9.871C20.6152 9.80017 19.9713 9.80654 19.335 9.89C19.29 9.89089 19.2452 9.89557 19.201 9.904H19.173C18.4274 9.98985 17.6998 10.1923 17.017 10.504C16.675 10.661 16.465 10.775 16.456 10.779C16.447 10.783 16.456 10.779 16.456 10.772C17.1939 10.1916 18.0452 9.7723 18.955 9.541L18.855 9.427H18.849C17.8814 9.47976 16.9534 9.82888 16.191 10.427C15.3219 12.1457 14.8542 14.0393 14.823 15.965C15.4883 16.8999 16.576 17.4415 17.723 17.409C17.723 17.409 18.081 16.973 18.36 16.62C17.691 16.4519 17.1015 16.0558 16.693 15.5C16.7 15.505 16.799 15.572 16.959 15.66C16.9698 15.6726 16.983 15.6829 16.998 15.69C17.0107 15.6988 17.0241 15.7065 17.038 15.713C17.0538 15.7202 17.0689 15.7289 17.083 15.739C17.3061 15.862 17.5377 15.9689 17.776 16.059C18.2291 16.2384 18.6977 16.3756 19.176 16.469C19.5948 16.5479 20.0199 16.5881 20.446 16.589C20.8455 16.589 21.2442 16.5521 21.637 16.479C22.1101 16.3959 22.5721 16.259 23.014 16.071C23.3958 15.9242 23.76 15.7353 24.1 15.508ZM22.062 15.081C21.6269 15.1189 21.2132 14.8859 21.0201 14.4942C20.8271 14.1025 20.8942 13.6324 21.1893 13.3104C21.4844 12.9885 21.9469 12.8807 22.3539 13.039C22.7609 13.1973 23.029 13.5893 23.029 14.026C23.051 14.5839 22.6188 15.0551 22.061 15.081H22.062ZM18.594 15.081C18.0469 15.0333 17.627 14.5752 17.627 14.026C17.627 13.4768 18.0469 13.0187 18.594 12.971C18.8461 12.9718 19.087 13.0746 19.262 13.256C19.4606 13.4621 19.5686 13.7389 19.562 14.025C19.5852 14.5839 19.1518 15.0561 18.593 15.081H18.594Z" fill="#D69006"/>
<defs>
<filter id="filter0_d" x="0" y="0" width="99" height="35" filterUnits="userSpaceOnUse" color-interpolation-filters="sRGB">
<feFlood flood-opacity="0" result="BackgroundImageFix"/>
<feColorMatrix in="SourceAlpha" type="matrix" values="0 0 0 0 0 0 0 0 0 0 0 0 0 0 0 0 0 0 127 0" result="hardAlpha"/>
<feOffset dy="4"/>
<feGaussianBlur stdDeviation="2"/>
<feColorMatrix type="matrix" values="0 0 0 0 0 0 0 0 0 0 0 0 0 0 0 0 0 0 0.25 0"/>
<feBlend mode="normal" in2="BackgroundImageFix" result="effect1_dropShadow"/>
<feBlend mode="normal" in="SourceGraphic" in2="effect1_dropShadow" result="shape"/>
</filter>
</defs>
</svg>
