<svg width="85" height="35" viewBox="0 0 85 35" fill="none" xmlns="http://www.w3.org/2000/svg">
<g filter="url(#filter0_d)">
<rect x="4" width="77" height="27" rx="13.5" fill="#1D0609"/>
</g>
<rect x="33" width="48" height="27" rx="13.5" fill="#360A0F"/>
<path d="M46.332 16.752C46.38 16.816 46.42 16.896 46.452 16.992C46.484 17.08 46.5 17.164 46.5 17.244C46.5 17.46 46.416 17.64 46.248 17.784C46.088 17.928 45.9 18 45.684 18C45.58 18 45.48 17.976 45.384 17.928C45.288 17.88 45.208 17.812 45.144 17.724L42.54 14.292L41.4 15.384V17.268C41.4 17.484 41.328 17.66 41.184 17.796C41.048 17.932 40.868 18 40.644 18C40.428 18 40.248 17.932 40.104 17.796C39.968 17.652 39.9 17.476 39.9 17.268V10.332C39.9 10.124 39.972 9.952 40.116 9.816C40.26 9.672 40.444 9.6 40.668 9.6C40.884 9.6 41.06 9.668 41.196 9.804C41.332 9.94 41.4 10.116 41.4 10.332V13.596L45.24 9.816C45.424 9.632 45.62 9.54 45.828 9.54C46.012 9.54 46.168 9.616 46.296 9.768C46.424 9.92 46.488 10.08 46.488 10.248C46.488 10.416 46.416 10.572 46.272 10.716L43.656 13.212L46.332 16.752ZM53.5535 14.796C53.5535 15.436 53.4095 16.012 53.1215 16.524C52.8335 17.028 52.4375 17.42 51.9335 17.7C51.4375 17.98 50.8895 18.12 50.2895 18.12C49.6815 18.12 49.1295 17.98 48.6335 17.7C48.1375 17.42 47.7455 17.028 47.4575 16.524C47.1695 16.012 47.0255 15.436 47.0255 14.796C47.0255 14.156 47.1695 13.584 47.4575 13.08C47.7455 12.568 48.1375 12.172 48.6335 11.892C49.1295 11.604 49.6815 11.46 50.2895 11.46C50.8895 11.46 51.4375 11.604 51.9335 11.892C52.4375 12.172 52.8335 12.568 53.1215 13.08C53.4095 13.584 53.5535 14.156 53.5535 14.796ZM52.1135 14.796C52.1135 14.404 52.0295 14.056 51.8615 13.752C51.7015 13.44 51.4815 13.2 51.2015 13.032C50.9295 12.864 50.6255 12.78 50.2895 12.78C49.9535 12.78 49.6455 12.864 49.3655 13.032C49.0935 13.2 48.8735 13.44 48.7055 13.752C48.5455 14.056 48.4655 14.404 48.4655 14.796C48.4655 15.188 48.5455 15.536 48.7055 15.84C48.8735 16.144 49.0935 16.38 49.3655 16.548C49.6455 16.716 49.9535 16.8 50.2895 16.8C50.6255 16.8 50.9295 16.716 51.2015 16.548C51.4815 16.38 51.7015 16.144 51.8615 15.84C52.0295 15.536 52.1135 15.188 52.1135 14.796ZM55.3086 15.036C55.1006 15.036 54.9246 14.968 54.7806 14.832C54.6446 14.696 54.5766 14.524 54.5766 14.316C54.5766 14.116 54.6446 13.948 54.7806 13.812C54.9246 13.676 55.1006 13.608 55.3086 13.608H57.3966C57.6046 13.608 57.7766 13.68 57.9126 13.824C58.0566 13.96 58.1286 14.132 58.1286 14.34C58.1286 14.54 58.0566 14.708 57.9126 14.844C57.7766 14.972 57.6046 15.036 57.3966 15.036H55.3086ZM61.1344 10.98V13.092H63.7264C63.9344 13.092 64.1064 13.16 64.2424 13.296C64.3864 13.424 64.4584 13.592 64.4584 13.8C64.4584 13.976 64.3864 14.132 64.2424 14.268C64.1064 14.404 63.9344 14.472 63.7264 14.472H61.1344V17.268C61.1344 17.476 61.0584 17.652 60.9064 17.796C60.7624 17.932 60.5904 18 60.3904 18C60.1664 18 59.9824 17.932 59.8384 17.796C59.7024 17.66 59.6344 17.484 59.6344 17.268V10.332C59.6344 10.124 59.7024 9.952 59.8384 9.816C59.9824 9.672 60.1584 9.6 60.3664 9.6H64.2664C64.4744 9.6 64.6464 9.668 64.7824 9.804C64.9264 9.932 64.9984 10.1 64.9984 10.308C64.9984 10.484 64.9264 10.64 64.7824 10.776C64.6464 10.912 64.4744 10.98 64.2664 10.98H61.1344ZM67.6087 17.268C67.6087 17.476 67.5407 17.652 67.4047 17.796C67.2687 17.932 67.0967 18 66.8887 18C66.6807 18 66.5087 17.932 66.3727 17.796C66.2367 17.652 66.1687 17.476 66.1687 17.268V12.312C66.1687 12.104 66.2367 11.932 66.3727 11.796C66.5087 11.652 66.6807 11.58 66.8887 11.58C67.0967 11.58 67.2687 11.652 67.4047 11.796C67.5407 11.932 67.6087 12.104 67.6087 12.312V17.268ZM66.8767 10.8C66.6047 10.8 66.4127 10.756 66.3007 10.668C66.1887 10.58 66.1327 10.424 66.1327 10.2V9.972C66.1327 9.748 66.1927 9.592 66.3127 9.504C66.4327 9.416 66.6247 9.372 66.8887 9.372C67.1687 9.372 67.3647 9.416 67.4767 9.504C67.5887 9.592 67.6447 9.748 67.6447 9.972V10.2C67.6447 10.432 67.5847 10.592 67.4647 10.68C67.3527 10.76 67.1567 10.8 66.8767 10.8Z" fill="#D69006"/>
<path d="M19.8433 7C15.2862 7.00002 10.7345 7.00804 10.552 7.02402C10.2899 7.04697 10.2656 7.0546 10.1695 7.14385C10.0745 7.23215 10.0653 7.25569 10.0433 7.46417C10.0303 7.58793 10.0129 10.088 10.0048 13.0199C9.98905 18.6831 10.0098 20.2942 10.1022 20.5921C10.2138 20.9518 10.6271 21.4744 10.9777 21.699C11.3235 21.9204 11.3782 21.9363 11.9229 21.974C12.5021 22.0141 23.292 22.0054 23.7308 21.9645C23.9587 21.9433 24.0244 21.9234 24.2613 21.8041C24.8102 21.5278 25.1749 21.1503 25.4651 20.5583C25.6888 20.102 25.8101 19.5979 25.8684 18.8822C25.8858 18.6688 25.9041 18.4793 25.909 18.461C25.9183 18.4268 25.9943 18.4183 26.7585 18.3662C27.7631 18.2977 28.6072 18.0576 29.3649 17.6246C30.5668 16.9378 31.4426 15.7829 31.8455 14.3538C31.9541 13.9683 31.9997 13.4174 32 12.4882C32.0003 11.5751 31.966 11.0251 31.8828 10.606C31.67 9.53416 31.1346 8.40211 30.5457 7.77909C30.3165 7.53653 30.0063 7.30426 29.7377 7.1741C29.5006 7.0592 29.4515 7.04624 29.1666 7.02391C28.9627 7.00793 24.4003 6.99998 19.8433 7ZM25.9502 9.91629L26.0423 9.9173C26.5367 9.92254 27.3812 9.97914 27.5194 10.0163C27.7581 10.0805 28.2024 10.3204 28.4204 10.5028C29.0281 11.0111 29.3318 11.7793 29.2841 12.6879C29.2536 13.2702 29.0976 13.8516 28.8667 14.2431C28.5913 14.7102 27.9639 15.1967 27.4294 15.3576C27.3226 15.3898 27.0872 15.4086 26.6147 15.4228L25.9502 15.4427V12.6795V9.91629ZM20.1268 10.2223C20.3996 10.2205 20.5112 10.2329 20.6916 10.285C21.1454 10.4163 21.64 10.7384 21.9 11.072C22.0433 11.2557 22.2105 11.5882 22.2943 11.856C22.3739 12.1101 22.4018 12.6509 22.3531 12.9952C22.2843 13.4817 22.0439 14.0703 21.7535 14.4636C21.3866 14.9604 20.4246 16.0094 19.0651 17.3951C18.1501 18.3277 17.9598 18.5086 17.8938 18.5086C17.8295 18.5086 17.6895 18.3854 17.129 17.8357C15.3413 16.0823 14.2107 14.8629 13.9035 14.357C13.5207 13.7265 13.3324 12.8426 13.4228 12.1005C13.5477 11.0744 14.2714 10.3705 15.3143 10.2606C16.1389 10.1737 16.9205 10.4666 17.5957 11.1154C17.7317 11.2462 17.8563 11.3531 17.8724 11.3531C17.8886 11.3531 18.0071 11.2545 18.1358 11.1339C18.4497 10.8398 18.7095 10.6561 19.0499 10.4877C19.4529 10.2882 19.7089 10.2252 20.1268 10.2223Z" fill="#D69006"/>
<defs>
<filter id="filter0_d" x="0" y="0" width="85" height="35" filterUnits="userSpaceOnUse" color-interpolation-filters="sRGB">
<feFlood flood-opacity="0" result="BackgroundImageFix"/>
<feColorMatrix in="SourceAlpha" type="matrix" values="0 0 0 0 0 0 0 0 0 0 0 0 0 0 0 0 0 0 127 0" result="hardAlpha"/>
<feOffset dy="4"/>
<feGaussianBlur stdDeviation="2"/>
<feColorMatrix type="matrix" values="0 0 0 0 0 0 0 0 0 0 0 0 0 0 0 0 0 0 0.25 0"/>
<feBlend mode="normal" in2="BackgroundImageFix" result="effect1_dropShadow"/>
<feBlend mode="normal" in="SourceGraphic" in2="effect1_dropShadow" result="shape"/>
</filter>
</defs>
</svg>
