<svg width="96" height="35" viewBox="0 0 96 35" fill="none" xmlns="http://www.w3.org/2000/svg">
<g filter="url(#filter0_d)">
<rect x="4" width="88" height="27" rx="13.5" fill="#1D0609"/>
</g>
<rect x="33" width="59" height="27" rx="13.5" fill="#360A0F"/>
<path d="M45.368 9.6C45.776 9.6 46.164 9.724 46.532 9.972C46.9 10.212 47.196 10.54 47.42 10.956C47.644 11.364 47.756 11.812 47.756 12.3C47.756 12.78 47.644 13.228 47.42 13.644C47.196 14.06 46.9 14.392 46.532 14.64C46.164 14.88 45.776 15 45.368 15H43.28V17.268C43.28 17.484 43.216 17.66 43.088 17.796C42.96 17.932 42.792 18 42.584 18C42.384 18 42.22 17.932 42.092 17.796C41.964 17.652 41.9 17.476 41.9 17.268V10.332C41.9 10.124 41.968 9.952 42.104 9.816C42.248 9.672 42.424 9.6 42.632 9.6H45.368ZM45.368 13.632C45.52 13.632 45.668 13.568 45.812 13.44C45.964 13.312 46.084 13.148 46.172 12.948C46.268 12.74 46.316 12.524 46.316 12.3C46.316 12.076 46.268 11.864 46.172 11.664C46.084 11.456 45.964 11.292 45.812 11.172C45.668 11.044 45.52 10.98 45.368 10.98H43.28V13.632H45.368ZM54.1479 11.46C54.3559 11.46 54.5279 11.528 54.6639 11.664C54.7999 11.8 54.8679 11.976 54.8679 12.192V17.268C54.8679 17.476 54.7999 17.652 54.6639 17.796C54.5279 17.932 54.3559 18 54.1479 18C53.9399 18 53.7679 17.932 53.6319 17.796C53.5039 17.66 53.4359 17.488 53.4279 17.28C53.2279 17.512 52.9559 17.712 52.6119 17.88C52.2759 18.04 51.9199 18.12 51.5439 18.12C50.9919 18.12 50.4919 17.98 50.0439 17.7C49.5959 17.412 49.2399 17.016 48.9759 16.512C48.7199 16.008 48.5919 15.436 48.5919 14.796C48.5919 14.156 48.7199 13.584 48.9759 13.08C49.2319 12.568 49.5799 12.172 50.0199 11.892C50.4679 11.604 50.9599 11.46 51.4959 11.46C51.8799 11.46 52.2399 11.532 52.5759 11.676C52.9119 11.812 53.1959 11.988 53.4279 12.204V12.192C53.4279 11.984 53.4959 11.812 53.6319 11.676C53.7679 11.532 53.9399 11.46 54.1479 11.46ZM51.7239 16.8C52.2439 16.8 52.6679 16.612 52.9959 16.236C53.3239 15.852 53.4879 15.372 53.4879 14.796C53.4879 14.22 53.3239 13.74 52.9959 13.356C52.6679 12.972 52.2439 12.78 51.7239 12.78C51.2119 12.78 50.7919 12.972 50.4639 13.356C50.1359 13.74 49.9719 14.22 49.9719 14.796C49.9719 15.372 50.1319 15.852 50.4519 16.236C50.7799 16.612 51.2039 16.8 51.7239 16.8ZM61.0518 11.58C61.2598 11.58 61.4318 11.652 61.5678 11.796C61.7038 11.932 61.7718 12.104 61.7718 12.312V17.412C61.7718 18.452 61.4918 19.208 60.9318 19.68C60.3718 20.16 59.6238 20.4 58.6878 20.4C58.4158 20.4 58.1358 20.376 57.8478 20.328C57.5678 20.288 57.3398 20.232 57.1638 20.16C56.7718 19.992 56.5758 19.76 56.5758 19.464C56.5758 19.408 56.5878 19.344 56.6118 19.272C56.6598 19.096 56.7398 18.96 56.8518 18.864C56.9718 18.776 57.0998 18.732 57.2358 18.732C57.3158 18.732 57.3918 18.744 57.4638 18.768C57.5198 18.792 57.6158 18.832 57.7518 18.888C57.8958 18.944 58.0438 18.988 58.1958 19.02C58.3558 19.06 58.5198 19.08 58.6878 19.08C59.2558 19.08 59.6718 18.956 59.9358 18.708C60.2078 18.468 60.3438 18.052 60.3438 17.46V17.34C59.9278 17.86 59.2798 18.12 58.3998 18.12C57.9838 18.12 57.6158 18.024 57.2958 17.832C56.9758 17.632 56.7278 17.36 56.5518 17.016C56.3758 16.664 56.2878 16.264 56.2878 15.816V12.312C56.2878 12.104 56.3558 11.932 56.4918 11.796C56.6278 11.652 56.7998 11.58 57.0078 11.58C57.2158 11.58 57.3878 11.652 57.5238 11.796C57.6598 11.932 57.7278 12.104 57.7278 12.312V15.384C57.7278 15.888 57.8358 16.252 58.0518 16.476C58.2758 16.692 58.5998 16.8 59.0238 16.8C59.4398 16.8 59.7598 16.68 59.9838 16.44C60.2158 16.192 60.3318 15.84 60.3318 15.384V12.312C60.3318 12.104 60.3998 11.932 60.5358 11.796C60.6718 11.652 60.8438 11.58 61.0518 11.58ZM66.9188 9.6C67.3268 9.6 67.7148 9.724 68.0828 9.972C68.4508 10.212 68.7468 10.54 68.9708 10.956C69.1948 11.364 69.3068 11.812 69.3068 12.3C69.3068 12.78 69.1948 13.228 68.9708 13.644C68.7468 14.06 68.4508 14.392 68.0828 14.64C67.7148 14.88 67.3268 15 66.9188 15H64.8308V17.268C64.8308 17.484 64.7668 17.66 64.6388 17.796C64.5108 17.932 64.3428 18 64.1348 18C63.9348 18 63.7708 17.932 63.6428 17.796C63.5148 17.652 63.4508 17.476 63.4508 17.268V10.332C63.4508 10.124 63.5188 9.952 63.6548 9.816C63.7988 9.672 63.9748 9.6 64.1828 9.6H66.9188ZM66.9188 13.632C67.0708 13.632 67.2188 13.568 67.3628 13.44C67.5148 13.312 67.6348 13.148 67.7228 12.948C67.8188 12.74 67.8668 12.524 67.8668 12.3C67.8668 12.076 67.8188 11.864 67.7228 11.664C67.6348 11.456 67.5148 11.292 67.3628 11.172C67.2188 11.044 67.0708 10.98 66.9188 10.98H64.8308V13.632H66.9188ZM75.6987 11.46C75.9067 11.46 76.0787 11.528 76.2147 11.664C76.3507 11.8 76.4187 11.976 76.4187 12.192V17.268C76.4187 17.476 76.3507 17.652 76.2147 17.796C76.0787 17.932 75.9067 18 75.6987 18C75.4907 18 75.3187 17.932 75.1827 17.796C75.0547 17.66 74.9867 17.488 74.9787 17.28C74.7787 17.512 74.5067 17.712 74.1627 17.88C73.8267 18.04 73.4707 18.12 73.0947 18.12C72.5427 18.12 72.0427 17.98 71.5947 17.7C71.1467 17.412 70.7907 17.016 70.5267 16.512C70.2707 16.008 70.1427 15.436 70.1427 14.796C70.1427 14.156 70.2707 13.584 70.5267 13.08C70.7827 12.568 71.1307 12.172 71.5707 11.892C72.0187 11.604 72.5107 11.46 73.0467 11.46C73.4307 11.46 73.7907 11.532 74.1267 11.676C74.4627 11.812 74.7467 11.988 74.9787 12.204V12.192C74.9787 11.984 75.0467 11.812 75.1827 11.676C75.3187 11.532 75.4907 11.46 75.6987 11.46ZM73.2747 16.8C73.7947 16.8 74.2187 16.612 74.5467 16.236C74.8747 15.852 75.0387 15.372 75.0387 14.796C75.0387 14.22 74.8747 13.74 74.5467 13.356C74.2187 12.972 73.7947 12.78 73.2747 12.78C72.7627 12.78 72.3427 12.972 72.0147 13.356C71.6867 13.74 71.5227 14.22 71.5227 14.796C71.5227 15.372 71.6827 15.852 72.0027 16.236C72.3307 16.612 72.7547 16.8 73.2747 16.8ZM79.5392 17.268C79.5392 17.476 79.4672 17.652 79.3232 17.796C79.1872 17.932 79.0152 18 78.8072 18C78.6072 18 78.4392 17.932 78.3032 17.796C78.1672 17.652 78.0992 17.476 78.0992 17.268V9.852C78.0992 9.644 78.1672 9.472 78.3032 9.336C78.4472 9.192 78.6232 9.12 78.8312 9.12C79.0312 9.12 79.1992 9.192 79.3352 9.336C79.4712 9.472 79.5392 9.644 79.5392 9.852V17.268Z" fill="#D69006"/>
<path d="M20.0334 23.018H17.5093C17.3811 23.0253 17.2574 22.9692 17.1783 22.868C17.0981 22.7653 17.0654 22.6333 17.0883 22.505C17.1283 22.264 17.1783 21.946 17.2413 21.542C17.2763 21.32 17.3143 21.079 17.3553 20.815C17.4803 20.015 17.5653 19.478 17.6223 19.127C17.645 18.9864 17.672 18.8197 17.7033 18.627V18.607C17.7546 18.2877 17.8173 17.8997 17.8913 17.443L17.9913 16.824V16.819C18.0633 16.3744 18.12 16.0207 18.1613 15.758C18.1659 15.65 18.2151 15.5488 18.2972 15.4784C18.3793 15.4081 18.4869 15.375 18.5943 15.387H20.1144C20.8436 15.3949 21.5715 15.3238 22.2854 15.175C23.3602 14.9605 24.3573 14.4599 25.1714 13.726C25.8847 13.0408 26.4201 12.1919 26.7314 11.2531C26.8833 10.8169 27.001 10.3695 27.0834 9.91506C27.0904 9.87306 27.0984 9.84906 27.1084 9.84106C27.1143 9.83335 27.1236 9.8289 27.1334 9.82906H27.1434C27.1653 9.83828 27.1861 9.85002 27.2054 9.86406C27.73 10.2615 28.0811 10.8461 28.1854 11.4961C28.3037 12.1759 28.2901 12.8722 28.1454 13.547C27.956 14.8529 27.2955 16.0444 26.2884 16.897C25.1758 17.69 23.8278 18.0833 22.4634 18.013H22.0244C21.8609 18.0117 21.7028 18.0708 21.5804 18.179C21.4534 18.2892 21.3689 18.4402 21.3414 18.606L21.3004 18.8L20.7474 22.278L20.7264 22.429C20.6978 22.5966 20.6097 22.7482 20.4784 22.856C20.3547 22.9624 20.1965 23.02 20.0334 23.018ZM16.4553 21.018H13.4903C13.3488 21.021 13.2134 20.9605 13.1213 20.853C13.0253 20.7475 12.9829 20.6038 13.0063 20.463L15.3373 5.67306C15.3666 5.48331 15.4653 5.31119 15.6143 5.19006C15.7582 5.06598 15.9423 4.99845 16.1323 5.00003H22.1464C22.4761 5.01305 22.8038 5.05691 23.1254 5.13106C23.5086 5.20359 23.8845 5.31069 24.2484 5.45106C24.9107 5.68526 25.485 6.11746 25.8934 6.68906C26.2806 7.27253 26.4789 7.96102 26.4614 8.66106C26.4444 9.47292 26.2885 10.2759 26.0004 11.0351C25.541 12.5097 24.4145 13.6822 22.9594 14.2C22.1426 14.4766 21.2867 14.6201 20.4244 14.625C20.4144 14.631 19.9844 14.632 19.5244 14.632L18.6243 14.625C18.0306 14.5644 17.4998 14.9955 17.4373 15.589C17.4243 15.643 17.1203 17.536 16.5823 20.918C16.5823 20.9501 16.568 20.9805 16.5432 21.0008C16.5184 21.0212 16.4858 21.0293 16.4543 21.023L16.4553 21.018Z" fill="#D69006"/>
<defs>
<filter id="filter0_d" x="0" y="0" width="96" height="35" filterUnits="userSpaceOnUse" color-interpolation-filters="sRGB">
<feFlood flood-opacity="0" result="BackgroundImageFix"/>
<feColorMatrix in="SourceAlpha" type="matrix" values="0 0 0 0 0 0 0 0 0 0 0 0 0 0 0 0 0 0 127 0" result="hardAlpha"/>
<feOffset dy="4"/>
<feGaussianBlur stdDeviation="2"/>
<feColorMatrix type="matrix" values="0 0 0 0 0 0 0 0 0 0 0 0 0 0 0 0 0 0 0.25 0"/>
<feBlend mode="normal" in2="BackgroundImageFix" result="effect1_dropShadow"/>
<feBlend mode="normal" in="SourceGraphic" in2="effect1_dropShadow" result="shape"/>
</filter>
</defs>
</svg>
