<svg width="99" height="35" viewBox="0 0 99 35" fill="none" xmlns="http://www.w3.org/2000/svg">
<g filter="url(#filter0_d)">
<rect x="4" width="91" height="27" rx="13.5" fill="#1D0609"/>
</g>
<rect x="33" width="62" height="27" rx="13.5" fill="#360A0F"/>
<path d="M45.42 8.6C45.636 8.6 45.812 8.664 45.948 8.792C46.084 8.92 46.152 9.088 46.152 9.296C46.152 9.504 46.084 9.672 45.948 9.8C45.812 9.92 45.636 9.98 45.42 9.98H43.536V16.268C43.536 16.476 43.46 16.652 43.308 16.796C43.156 16.932 42.968 17 42.744 17C42.52 17 42.336 16.932 42.192 16.796C42.048 16.652 41.976 16.476 41.976 16.268V9.98H40.092C39.876 9.98 39.7 9.916 39.564 9.788C39.428 9.66 39.36 9.492 39.36 9.284C39.36 9.084 39.428 8.92 39.564 8.792C39.708 8.664 39.884 8.6 40.092 8.6H45.42ZM53.2423 10.58C53.4343 10.58 53.5943 10.652 53.7223 10.796C53.8583 10.932 53.9263 11.108 53.9263 11.324C53.9263 11.396 53.9103 11.488 53.8783 11.6L52.0423 16.544C51.9943 16.688 51.9063 16.804 51.7783 16.892C51.6583 16.972 51.5263 17.012 51.3823 17.012L51.2863 17C51.0143 16.984 50.8103 16.832 50.6743 16.544L49.6543 13.592L48.6823 16.544C48.5463 16.832 48.3423 16.984 48.0703 17L47.9743 17.012C47.8303 17.012 47.6943 16.972 47.5663 16.892C47.4463 16.804 47.3623 16.688 47.3143 16.544L45.4783 11.6C45.4463 11.512 45.4303 11.42 45.4303 11.324C45.4303 11.124 45.4943 10.952 45.6223 10.808C45.7583 10.656 45.9343 10.58 46.1503 10.58C46.3103 10.58 46.4463 10.62 46.5583 10.7C46.6783 10.772 46.7623 10.884 46.8103 11.036L48.1063 14.552L49.0543 11.984C49.1823 11.688 49.4023 11.54 49.7143 11.54C49.8823 11.54 50.0103 11.576 50.0983 11.648C50.1943 11.72 50.2743 11.832 50.3383 11.984L51.2623 14.492L52.5463 11.036C52.5943 10.884 52.6783 10.772 52.7983 10.7C52.9183 10.62 53.0663 10.58 53.2423 10.58ZM56.4173 16.268C56.4173 16.476 56.3493 16.652 56.2133 16.796C56.0773 16.932 55.9053 17 55.6973 17C55.4893 17 55.3173 16.932 55.1813 16.796C55.0453 16.652 54.9773 16.476 54.9773 16.268V11.312C54.9773 11.104 55.0453 10.932 55.1813 10.796C55.3173 10.652 55.4893 10.58 55.6973 10.58C55.9053 10.58 56.0773 10.652 56.2133 10.796C56.3493 10.932 56.4173 11.104 56.4173 11.312V16.268ZM55.6853 9.8C55.4133 9.8 55.2213 9.756 55.1093 9.668C54.9973 9.58 54.9413 9.424 54.9413 9.2V8.972C54.9413 8.748 55.0013 8.592 55.1213 8.504C55.2413 8.416 55.4333 8.372 55.6973 8.372C55.9773 8.372 56.1733 8.416 56.2853 8.504C56.3973 8.592 56.4533 8.748 56.4533 8.972V9.2C56.4533 9.432 56.3933 9.592 56.2733 9.68C56.1613 9.76 55.9653 9.8 55.6853 9.8ZM60.9932 15.644C61.1052 15.644 61.2052 15.7 61.2932 15.812C61.3892 15.916 61.4372 16.056 61.4372 16.232C61.4372 16.448 61.3172 16.632 61.0772 16.784C60.8452 16.928 60.5812 17 60.2852 17C59.7892 17 59.3692 16.896 59.0252 16.688C58.6892 16.472 58.5212 16.02 58.5212 15.332V12.02H57.9692C57.7772 12.02 57.6172 11.956 57.4892 11.828C57.3612 11.7 57.2972 11.54 57.2972 11.348C57.2972 11.164 57.3612 11.012 57.4892 10.892C57.6172 10.764 57.7772 10.7 57.9692 10.7H58.5212V9.932C58.5212 9.724 58.5892 9.552 58.7252 9.416C58.8692 9.272 59.0452 9.2 59.2532 9.2C59.4532 9.2 59.6212 9.272 59.7572 9.416C59.8932 9.552 59.9612 9.724 59.9612 9.932V10.7H60.8132C61.0052 10.7 61.1652 10.764 61.2932 10.892C61.4212 11.02 61.4852 11.18 61.4852 11.372C61.4852 11.556 61.4212 11.712 61.2932 11.84C61.1652 11.96 61.0052 12.02 60.8132 12.02H59.9612V15.272C59.9612 15.44 60.0052 15.564 60.0932 15.644C60.1812 15.716 60.3012 15.752 60.4532 15.752C60.5172 15.752 60.6052 15.736 60.7172 15.704C60.8132 15.664 60.9052 15.644 60.9932 15.644ZM65.9033 15.644C66.0153 15.644 66.1153 15.7 66.2033 15.812C66.2993 15.916 66.3473 16.056 66.3473 16.232C66.3473 16.448 66.2273 16.632 65.9873 16.784C65.7553 16.928 65.4913 17 65.1953 17C64.6993 17 64.2793 16.896 63.9353 16.688C63.5993 16.472 63.4313 16.02 63.4313 15.332V12.02H62.8793C62.6873 12.02 62.5273 11.956 62.3993 11.828C62.2713 11.7 62.2073 11.54 62.2073 11.348C62.2073 11.164 62.2713 11.012 62.3993 10.892C62.5273 10.764 62.6873 10.7 62.8793 10.7H63.4313V9.932C63.4313 9.724 63.4993 9.552 63.6353 9.416C63.7793 9.272 63.9553 9.2 64.1633 9.2C64.3633 9.2 64.5313 9.272 64.6673 9.416C64.8033 9.552 64.8713 9.724 64.8713 9.932V10.7H65.7233C65.9153 10.7 66.0753 10.764 66.2033 10.892C66.3313 11.02 66.3953 11.18 66.3953 11.372C66.3953 11.556 66.3313 11.712 66.2033 11.84C66.0753 11.96 65.9153 12.02 65.7233 12.02H64.8713V15.272C64.8713 15.44 64.9153 15.564 65.0033 15.644C65.0913 15.716 65.2113 15.752 65.3633 15.752C65.4273 15.752 65.5153 15.736 65.6273 15.704C65.7233 15.664 65.8153 15.644 65.9033 15.644ZM73.4189 13.64C73.4109 13.832 73.3349 13.988 73.1909 14.108C73.0469 14.228 72.8789 14.288 72.6869 14.288H68.7269C68.8229 14.76 69.0429 15.132 69.3869 15.404C69.7309 15.668 70.1189 15.8 70.5509 15.8C70.8789 15.8 71.1349 15.772 71.3189 15.716C71.5029 15.652 71.6469 15.588 71.7509 15.524C71.8629 15.452 71.9389 15.404 71.9789 15.38C72.1229 15.308 72.2589 15.272 72.3869 15.272C72.5549 15.272 72.6989 15.332 72.8189 15.452C72.9389 15.572 72.9989 15.712 72.9989 15.872C72.9989 16.088 72.8869 16.284 72.6629 16.46C72.4389 16.644 72.1389 16.8 71.7629 16.928C71.3869 17.056 71.0069 17.12 70.6229 17.12C69.9509 17.12 69.3629 16.98 68.8589 16.7C68.3629 16.42 67.9789 16.036 67.7069 15.548C67.4349 15.052 67.2989 14.496 67.2989 13.88C67.2989 13.192 67.4429 12.588 67.7309 12.068C68.0189 11.548 68.3989 11.152 68.8709 10.88C69.3429 10.6 69.8469 10.46 70.3829 10.46C70.9109 10.46 71.4069 10.604 71.8709 10.892C72.3429 11.18 72.7189 11.568 72.9989 12.056C73.2789 12.544 73.4189 13.072 73.4189 13.64ZM70.3829 11.78C69.4549 11.78 68.9069 12.216 68.7389 13.088H71.8829V13.004C71.8509 12.668 71.6869 12.38 71.3909 12.14C71.0949 11.9 70.7589 11.78 70.3829 11.78ZM77.9558 10.46C78.1958 10.46 78.3958 10.528 78.5558 10.664C78.7238 10.8 78.8078 10.96 78.8078 11.144C78.8078 11.392 78.7438 11.58 78.6158 11.708C78.4878 11.828 78.3358 11.888 78.1598 11.888C78.0398 11.888 77.9038 11.86 77.7518 11.804C77.7278 11.796 77.6718 11.78 77.5838 11.756C77.5038 11.732 77.4158 11.72 77.3198 11.72C77.1118 11.72 76.9118 11.784 76.7198 11.912C76.5278 12.04 76.3678 12.236 76.2398 12.5C76.1198 12.756 76.0598 13.064 76.0598 13.424V16.268C76.0598 16.476 75.9918 16.652 75.8558 16.796C75.7198 16.932 75.5478 17 75.3398 17C75.1318 17 74.9598 16.932 74.8238 16.796C74.6878 16.652 74.6198 16.476 74.6198 16.268V11.312C74.6198 11.104 74.6878 10.932 74.8238 10.796C74.9598 10.652 75.1318 10.58 75.3398 10.58C75.5478 10.58 75.7198 10.652 75.8558 10.796C75.9918 10.932 76.0598 11.104 76.0598 11.312V11.468C76.2438 11.14 76.5078 10.892 76.8518 10.724C77.1958 10.548 77.5638 10.46 77.9558 10.46Z" fill="#D69006"/>
<path d="M29.454 7.6792C30.3504 7.14329 31.0212 6.29944 31.341 5.3052C30.4987 5.805 29.577 6.15708 28.616 6.3462C27.2836 4.93673 25.1725 4.59372 23.4624 5.50885C21.7523 6.42398 20.8665 8.37069 21.3 10.2612C17.8496 10.088 14.635 8.45811 12.456 5.7772C11.3188 7.73862 11.8999 10.246 13.784 11.5072C13.1027 11.4853 12.4365 11.3008 11.841 10.9692C11.841 10.9872 11.841 11.0052 11.841 11.0232C11.8414 13.0663 13.2814 14.8263 15.284 15.2312C14.6521 15.4031 13.9892 15.4284 13.346 15.3052C13.9092 17.0525 15.5195 18.2495 17.355 18.2852C15.8348 19.4783 13.9575 20.1254 12.025 20.1222C11.6825 20.1227 11.3402 20.103 11 20.0632C12.9624 21.3242 15.2464 21.9935 17.579 21.9912C20.8243 22.0135 23.943 20.7341 26.2377 18.4392C28.5324 16.1443 29.8116 13.0254 29.789 9.7802C29.789 9.5942 29.7847 9.4092 29.776 9.2252C30.6165 8.6178 31.3418 7.86535 31.918 7.0032C31.135 7.35026 30.3045 7.57812 29.454 7.6792Z" fill="#D69006"/>
<defs>
<filter id="filter0_d" x="0" y="0" width="99" height="35" filterUnits="userSpaceOnUse" color-interpolation-filters="sRGB">
<feFlood flood-opacity="0" result="BackgroundImageFix"/>
<feColorMatrix in="SourceAlpha" type="matrix" values="0 0 0 0 0 0 0 0 0 0 0 0 0 0 0 0 0 0 127 0" result="hardAlpha"/>
<feOffset dy="4"/>
<feGaussianBlur stdDeviation="2"/>
<feColorMatrix type="matrix" values="0 0 0 0 0 0 0 0 0 0 0 0 0 0 0 0 0 0 0.25 0"/>
<feBlend mode="normal" in2="BackgroundImageFix" result="effect1_dropShadow"/>
<feBlend mode="normal" in="SourceGraphic" in2="effect1_dropShadow" result="shape"/>
</filter>
</defs>
</svg>
